<svg xmlns="http://www.w3.org/2000/svg" viewBox="0 0 16 16" width="16" height="16" shape-rendering="crispEdges"><rect x="0" y="0" width="1" height="1" fill="#1b1418"/><rect x="13" y="0" width="1" height="1" fill="#1b1418"/><rect x="0" y="1" width="1" height="1" fill="#1b1418"/><rect x="1" y="1" width="1" height="1" fill="#4a3a40"/><rect x="2" y="1" width="11" height="1" fill="#1b1418"/><rect x="13" y="1" width="1" height="1" fill="#4a3a40"/><rect x="14" y="1" width="1" height="1" fill="#1b1418"/><rect x="1" y="2" width="1" height="1" fill="#1b1418"/><rect x="2" y="2" width="12" height="1" fill="#2e2428"/><rect x="14" y="2" width="1" height="1" fill="#1b1418"/><rect x="2" y="3" width="1" height="1" fill="#1b1418"/><rect x="3" y="3" width="1" height="1" fill="#ef6a55"/><rect x="4" y="3" width="9" height="1" fill="#d0392f"/><rect x="13" y="3" width="1" height="1" fill="#1b1418"/><rect x="2" y="4" width="1" height="1" fill="#1b1418"/><rect x="3" y="4" width="1" height="1" fill="#9e2a24"/><rect x="4" y="4" width="2" height="1" fill="#d0392f"/><rect x="6" y="4" width="1" height="1" fill="#1b1418"/><rect x="7" y="4" width="1" height="1" fill="#f8e7a0"/><rect x="8" y="4" width="1" height="1" fill="#e3c15a"/><rect x="9" y="4" width="1" height="1" fill="#1b1418"/><rect x="10" y="4" width="2" height="1" fill="#d0392f"/><rect x="12" y="4" width="1" height="1" fill="#9e2a24"/><rect x="13" y="4" width="1" height="1" fill="#1b1418"/><rect x="3" y="5" width="1" height="1" fill="#1b1418"/><rect x="4" y="5" width="1" height="1" fill="#ef6a55"/><rect x="5" y="5" width="1" height="1" fill="#d0392f"/><rect x="6" y="5" width="1" height="1" fill="#1b1418"/><rect x="7" y="5" width="1" height="1" fill="#e3c15a"/><rect x="8" y="5" width="2" height="1" fill="#1b1418"/><rect x="10" y="5" width="1" height="1" fill="#d0392f"/><rect x="11" y="5" width="1" height="1" fill="#9e2a24"/><rect x="12" y="5" width="1" height="1" fill="#1b1418"/><rect x="3" y="6" width="1" height="1" fill="#1b1418"/><rect x="4" y="6" width="1" height="1" fill="#ef6a55"/><rect x="5" y="6" width="1" height="1" fill="#d0392f"/><rect x="6" y="6" width="1" height="1" fill="#1b1418"/><rect x="7" y="6" width="1" height="1" fill="#f8e7a0"/><rect x="8" y="6" width="1" height="1" fill="#e3c15a"/><rect x="9" y="6" width="1" height="1" fill="#1b1418"/><rect x="10" y="6" width="1" height="1" fill="#d0392f"/><rect x="11" y="6" width="1" height="1" fill="#9e2a24"/><rect x="12" y="6" width="1" height="1" fill="#1b1418"/><rect x="2" y="7" width="1" height="1" fill="#1b1418"/><rect x="3" y="7" width="1" height="1" fill="#ef6a55"/><rect x="4" y="7" width="3" height="1" fill="#d0392f"/><rect x="7" y="7" width="2" height="1" fill="#1b1418"/><rect x="9" y="7" width="3" height="1" fill="#d0392f"/><rect x="12" y="7" width="1" height="1" fill="#9e2a24"/><rect x="13" y="7" width="1" height="1" fill="#1b1418"/><rect x="2" y="8" width="1" height="1" fill="#1b1418"/><rect x="3" y="8" width="1" height="1" fill="#ef6a55"/><rect x="4" y="8" width="8" height="1" fill="#d0392f"/><rect x="12" y="8" width="1" height="1" fill="#9e2a24"/><rect x="13" y="8" width="1" height="1" fill="#1b1418"/><rect x="3" y="9" width="1" height="1" fill="#1b1418"/><rect x="4" y="9" width="1" height="1" fill="#ef6a55"/><rect x="5" y="9" width="1" height="1" fill="#d0392f"/><rect x="6" y="9" width="4" height="1" fill="#1b1418"/><rect x="10" y="9" width="1" height="1" fill="#d0392f"/><rect x="11" y="9" width="1" height="1" fill="#9e2a24"/><rect x="12" y="9" width="1" height="1" fill="#1b1418"/><rect x="3" y="10" width="1" height="1" fill="#1b1418"/><rect x="4" y="10" width="1" height="1" fill="#ef6a55"/><rect x="5" y="10" width="1" height="1" fill="#d0392f"/><rect x="6" y="10" width="1" height="1" fill="#1b1418"/><rect x="9" y="10" width="1" height="1" fill="#1b1418"/><rect x="10" y="10" width="1" height="1" fill="#ef6a55"/><rect x="11" y="10" width="1" height="1" fill="#9e2a24"/><rect x="12" y="10" width="1" height="1" fill="#1b1418"/><rect x="3" y="11" width="1" height="1" fill="#1b1418"/><rect x="4" y="11" width="1" height="1" fill="#ef6a55"/><rect x="5" y="11" width="1" height="1" fill="#d0392f"/><rect x="6" y="11" width="1" height="1" fill="#1b1418"/><rect x="9" y="11" width="1" height="1" fill="#1b1418"/><rect x="10" y="11" width="1" height="1" fill="#ef6a55"/><rect x="11" y="11" width="1" height="1" fill="#9e2a24"/><rect x="12" y="11" width="1" height="1" fill="#1b1418"/><rect x="3" y="12" width="1" height="1" fill="#1b1418"/><rect x="4" y="12" width="1" height="1" fill="#ef6a55"/><rect x="5" y="12" width="1" height="1" fill="#d0392f"/><rect x="6" y="12" width="1" height="1" fill="#1b1418"/><rect x="9" y="12" width="1" height="1" fill="#1b1418"/><rect x="10" y="12" width="1" height="1" fill="#ef6a55"/><rect x="11" y="12" width="1" height="1" fill="#9e2a24"/><rect x="12" y="12" width="1" height="1" fill="#1b1418"/><rect x="3" y="13" width="1" height="1" fill="#1b1418"/><rect x="4" y="13" width="2" height="1" fill="#2e2428"/><rect x="6" y="13" width="1" height="1" fill="#1b1418"/><rect x="9" y="13" width="1" height="1" fill="#1b1418"/><rect x="10" y="13" width="2" height="1" fill="#2e2428"/><rect x="12" y="13" width="1" height="1" fill="#1b1418"/><rect x="2" y="14" width="1" height="1" fill="#1b1418"/><rect x="3" y="14" width="1" height="1" fill="#e4ecf2"/><rect x="4" y="14" width="2" height="1" fill="#a8b4c0"/><rect x="6" y="14" width="1" height="1" fill="#6a7480"/><rect x="7" y="14" width="1" height="1" fill="#1b1418"/><rect x="9" y="14" width="1" height="1" fill="#1b1418"/><rect x="10" y="14" width="1" height="1" fill="#e4ecf2"/><rect x="11" y="14" width="2" height="1" fill="#a8b4c0"/><rect x="13" y="14" width="1" height="1" fill="#6a7480"/><rect x="14" y="14" width="1" height="1" fill="#1b1418"/><rect x="2" y="15" width="6" height="1" fill="#1b1418"/><rect x="9" y="15" width="6" height="1" fill="#1b1418"/></svg>
